<svg xmlns="http://www.w3.org/2000/svg" viewBox="0 0 512 512" width="512" height="512">
  <rect width="512" height="512" rx="112" fill="#0f172a"/>
  <rect x="24" y="24" width="464" height="464" rx="96" fill="#1e293b" stroke="#f59e0b" stroke-width="12"/>
  
  <!-- Architectural Pediment (Roof) -->
  <polygon points="120,190 392,190 256,110" fill="#f59e0b"/>
  
  <!-- Entablature (Beam) -->
  <rect x="110" y="190" width="292" height="24" rx="4" fill="#d97706"/>
  
  <!-- Classical Pillars -->
  <rect x="135" y="214" width="30" height="150" rx="3" fill="#fbbf24"/>
  <rect x="205" y="214" width="30" height="150" rx="3" fill="#fbbf24"/>
  <rect x="277" y="214" width="30" height="150" rx="3" fill="#fbbf24"/>
  <rect x="347" y="214" width="30" height="150" rx="3" fill="#fbbf24"/>
  
  <!-- Base Podium -->
  <rect x="100" y="364" width="312" height="32" rx="6" fill="#f59e0b"/>
  <rect x="80" y="396" width="352" height="24" rx="6" fill="#d97706"/>
  
  <!-- UK Badge Indicator -->
  <circle cx="390" cy="120" r="44" fill="#1e1b4b" stroke="#f59e0b" stroke-width="6"/>
  <text x="390" y="130" font-family="-apple-system, BlinkMacSystemFont, 'Segoe UI', Roboto, sans-serif" font-size="28" font-weight="900" fill="#fbbf24" text-anchor="middle">UK</text>
  
  <!-- Soundwave Waves -->
  <path d="M 170 450 Q 256 430 342 450" fill="none" stroke="#38bdf8" stroke-width="8" stroke-linecap="round"/>
</svg>
